<?xml version="1.0" encoding="UTF-8" standalone="no"?>
<!DOCTYPE svg PUBLIC "-//W3C//DTD SVG 1.1//EN" "http://www.w3.org/Graphics/SVG/1.1/DTD/svg11.dtd">
<svg width="100%" height="100%" viewBox="0 0 866 876" version="1.1" xmlns="http://www.w3.org/2000/svg" xmlns:xlink="http://www.w3.org/1999/xlink" xml:space="preserve" xmlns:serif="http://www.serif.com/" style="fill-rule:evenodd;clip-rule:evenodd;stroke-linejoin:round;stroke-miterlimit:2;">
    <g transform="matrix(1,0,0,1,-3184.93,-825.388)">
        <g transform="matrix(0.904145,0,0,0.816751,255.478,152.815)">
            <g transform="matrix(0.996972,0,0,0.983308,-152.29,-85.6474)">
                <path d="M3885.44,924.554C4045.74,945.299 4205.82,976.86 4363.26,1059.15L4363.26,1644.45C4350.41,1723.1 4104.25,1902.9 3885.44,2014.19C3683.24,1918.33 3412.27,1724.21 3402.62,1644.45L3402.62,1059.15C3545.33,982.109 3708.03,940.658 3885.44,924.554ZM3449.14,1085.55L3449.14,1644.62C3578.08,1776.17 3713.59,1885.23 3885.44,1962.66C4037.85,1881.81 4180.8,1812.09 4318.25,1644.45L4322.29,1085.55C4201.61,1032.45 4059.64,987.734 3885.44,966.914C3711.06,986.181 3574.31,1027.36 3449.14,1085.55ZM3887.64,1219.13L3874.65,1170.55L4015.7,1219.13C4035.41,1226.28 4046.93,1240 4048.55,1258.89C4051.45,1287.12 4060.86,1303.96 4075.51,1311.65L4241.08,1407.44L4188.7,1411.58C4202.83,1422.65 4210.11,1439.44 4207.94,1464.11L4220.32,1454.68C4217.99,1462.28 4198.37,1526.49 4163.61,1536.34C4131.06,1545.57 4059.46,1513.64 4012.37,1531.34C3961.13,1550.6 3931.86,1658.29 3928.45,1670.86C3917.72,1710.32 3909.07,1750.34 3898.01,1789.7C3897.44,1752.94 3894.23,1716.26 3893.67,1679.49C3893.42,1663.23 3894.32,1646.95 3895.57,1630.73C3905.13,1505.9 3948.68,1483.35 3961.27,1470.64L3841.75,1481.49L3720.98,1367.6L3797.06,1554.5L3720.98,1534.1L3898.01,1884.56L3547.47,1504.32L3655.97,1486.05L3596.36,1407.44C3615.96,1379.51 3637.65,1353.1 3657.12,1325.08C3668.24,1309.07 3677.98,1292.14 3688.05,1275.45C3725.33,1213.64 3719.47,1211.06 3743.27,1142.81C3745.71,1135.8 3760.36,1086.86 3776.85,1060.44C3789.93,1039.49 3792.86,1033.58 3797.06,1039.37C3817.87,1068.03 3836.84,1126.18 3887.64,1219.13ZM3791.54,1106.58L3761.52,1205.95L3825.16,1285.35L3791.54,1106.58ZM3948.05,1289.12L3986.32,1327.03C4009.73,1329.31 4030.93,1332.51 4043.91,1339.16L4027.86,1302.96C4024.15,1297.4 4011.77,1292.35 4001.93,1292.57L3948.05,1289.12ZM3921.45,1028.72C3928.53,1067.23 3933.14,1118.05 3937.41,1170.55L3879.5,1148.39C3888.13,1087.66 3902.64,1050.4 3921.45,1028.72Z" style="fill:rgb(189,154,100);"/>
            </g>
        </g>
    </g>
</svg>
